# xmcd
#
# Track frame offsets:
#	150
#	9923
#	21432
#	34104
#	46422
#	59922
#	71379
#	88287
#	99212
#	108522
#	124052
#	136657
#	147361
#
# Disc length: 2147 seconds
#
# Revision: 0
# Processed by: cddbd v1.5.2PL0 Copyright (c) Steve Scherf et al.
# Submitted via: EZCDAudioConverter 2.1.7.1
#
DISCID=b208610d
DTITLE=Patsy Cline - The Best Of Patsy Cline, Vol. 2, 20th Century Masters, Th
DTITLE=e Millennium Collection
DYEAR=2007
DGENRE=Country
TTITLE0=Blue Moon Over Kentucky (Ft. The Jordanaires)
TTITLE1=Walkin' After Mindnight
TTITLE2=Fall To Pieces (Ft. The Jordanaires)
TTITLE3=Crazy (Ft. The Jordanaires)
TTITLE4=She Got You (Ft. The Jordanaires)
TTITLE5=Sweet Dreams (Ft. The Jordanaires)
TTITLE6=Faded Love (Ft. The Jordanaires)
TTITLE7=Lovin' On Your Mind (Ft. The Jordanaires)
TTITLE8=Back In Baby's Arms (Ft. The Jordanaires)
TTITLE9=Why Can't He Be You (Ft. The Jordanaires)
TTITLE10=Bill Bailey, Won't You Please Come Home (Ft. The Jordanaires)
TTITLE11=Lovesick Blues (Ft. The Jordanaires)
TTITLE12=Have You Been Lonely (Have You Ever Been Blue) (W/ Jim Reeves)
EXTD=
EXTT0=
EXTT1=
EXTT2=
EXTT3=
EXTT4=
EXTT5=
EXTT6=
EXTT7=
EXTT8=
EXTT9=
EXTT10=
EXTT11=
EXTT12=
PLAYORDER=
